<svg width="326" height="38" viewBox="0 0 326 38" fill="none" xmlns="http://www.w3.org/2000/svg">
<path d="M0.404688 13.8964H7.44469V6.65645H10.3247V13.8964H17.3647V16.7764H10.3247V23.9764H7.44469V16.7764H0.404688V13.8964ZM23.4 28.8564L33.44 5.41644L35.2 3.45644L32.84 3.81644H21.44V0.856443H38.16V1.93644L26.64 28.8564H23.4ZM58.3925 37.6564C57.1658 36.3764 56.1258 34.9631 55.2725 33.4164C54.4192 31.8964 53.7258 30.3364 53.1925 28.7364C52.6858 27.1098 52.3125 25.4831 52.0725 23.8564C51.8325 22.2031 51.7125 20.6298 51.7125 19.1364C51.7125 17.6698 51.8325 16.1231 52.0725 14.4964C52.3125 12.8698 52.6992 11.2431 53.2325 9.61644C53.7658 7.96311 54.4592 6.34978 55.3125 4.77644C56.1925 3.20311 57.2592 1.73644 58.5125 0.376445L60.4325 1.77644C59.3658 3.13644 58.4725 4.54978 57.7525 6.01644C57.0592 7.45644 56.4992 8.92311 56.0725 10.4164C55.6458 11.9098 55.3392 13.4031 55.1525 14.8964C54.9925 16.3631 54.9125 17.7764 54.9125 19.1364C54.9125 20.4164 55.0058 21.8164 55.1925 23.3364C55.4058 24.8298 55.7258 26.3364 56.1525 27.8564C56.6058 29.3498 57.1792 30.8164 57.8725 32.2564C58.5925 33.6964 59.4458 35.0031 60.4325 36.1764L58.3925 37.6564ZM63.2434 22.1764C63.2434 20.4964 63.6834 19.0431 64.5634 17.8164C65.4434 16.5631 66.8168 15.4298 68.6834 14.4164C68.0168 14.0164 67.3901 13.6031 66.8034 13.1764C66.2434 12.7231 65.7368 12.2164 65.2834 11.6564C64.8568 11.0964 64.5101 10.4698 64.2434 9.77644C64.0034 9.08311 63.8834 8.28311 63.8834 7.37645C63.8834 6.33644 64.0568 5.38978 64.4034 4.53644C64.7768 3.68311 65.2968 2.94978 65.9634 2.33644C66.6568 1.72311 67.4701 1.24311 68.4034 0.896443C69.3634 0.549778 70.4434 0.376445 71.6434 0.376445C72.7634 0.376445 73.7768 0.536444 74.6834 0.856443C75.5901 1.17644 76.3501 1.61644 76.9634 2.17644C77.6034 2.73644 78.0968 3.40311 78.4434 4.17644C78.7901 4.94978 78.9634 5.80311 78.9634 6.73644C78.9634 8.25644 78.6168 9.60311 77.9234 10.7764C77.2301 11.9231 76.0834 13.0564 74.4834 14.1764C75.1768 14.5764 75.8301 15.0164 76.4434 15.4964C77.0834 15.9764 77.6301 16.5098 78.0834 17.0964C78.5634 17.6831 78.9368 18.3498 79.2034 19.0964C79.4701 19.8164 79.6034 20.6431 79.6034 21.5764C79.6034 22.7231 79.4168 23.7764 79.0434 24.7364C78.6701 25.6698 78.1234 26.4831 77.4034 27.1764C76.6834 27.8431 75.8034 28.3764 74.7634 28.7764C73.7234 29.1498 72.5368 29.3364 71.2034 29.3364C69.9234 29.3364 68.7901 29.1498 67.8034 28.7764C66.8168 28.4031 65.9768 27.8964 65.2834 27.2564C64.6168 26.6164 64.1101 25.8698 63.7634 25.0164C63.4168 24.1364 63.2434 23.1898 63.2434 22.1764ZM76.4834 21.7764C76.4834 20.9764 76.3234 20.2831 76.0034 19.6964C75.6834 19.0831 75.2568 18.5364 74.7234 18.0564C74.2168 17.5498 73.6301 17.0964 72.9634 16.6964C72.2968 16.2964 71.6034 15.9098 70.8834 15.5364C69.2568 16.4431 68.0968 17.4564 67.4034 18.5764C66.7101 19.6964 66.3634 20.7631 66.3634 21.7764C66.3634 22.4164 66.4701 23.0298 66.6834 23.6164C66.8968 24.2031 67.2168 24.7098 67.6434 25.1364C68.0701 25.5631 68.5901 25.9098 69.2034 26.1764C69.8434 26.4164 70.5768 26.5364 71.4034 26.5364C72.0701 26.5364 72.7101 26.4431 73.3234 26.2564C73.9368 26.0431 74.4701 25.7498 74.9234 25.3764C75.4034 24.9764 75.7768 24.4831 76.0434 23.8964C76.3368 23.2831 76.4834 22.5764 76.4834 21.7764ZM67.0034 7.29644C67.0034 8.04311 67.1501 8.70978 67.4434 9.29644C67.7368 9.85644 68.1234 10.3631 68.6034 10.8164C69.1101 11.2698 69.6834 11.6964 70.3234 12.0964C70.9634 12.4698 71.6301 12.8298 72.3234 13.1764C73.5234 12.2431 74.4034 11.3231 74.9634 10.4164C75.5501 9.50978 75.8434 8.50978 75.8434 7.41644C75.8434 6.05644 75.4168 5.01644 74.5634 4.29644C73.7368 3.54978 72.7368 3.17644 71.5634 3.17644C70.8434 3.17644 70.2034 3.29644 69.6434 3.53644C69.0834 3.77644 68.6034 4.08311 68.2034 4.45644C67.8034 4.82978 67.4968 5.26978 67.2834 5.77644C67.0968 6.25644 67.0034 6.76311 67.0034 7.29644ZM86.6403 25.8964H92.2403V6.53644L92.6403 4.17644L91.0403 6.05644L86.6403 9.21644L85.1203 7.17644L93.9203 0.376445H95.3603V25.8964H100.84V28.8564H86.6403V25.8964ZM121.957 7.21644C121.957 8.62978 121.691 10.0831 121.157 11.5764C120.651 13.0431 119.971 14.5231 119.117 16.0164C118.291 17.5098 117.357 18.9764 116.317 20.4164C115.277 21.8298 114.237 23.1764 113.197 24.4564L111.237 26.1764V26.3364L113.797 25.8964H122.517V28.8564H106.597V27.6964C107.184 27.0831 107.891 26.3231 108.717 25.4164C109.544 24.5098 110.397 23.5098 111.277 22.4164C112.184 21.2964 113.064 20.1231 113.917 18.8964C114.797 17.6431 115.584 16.3764 116.277 15.0964C116.997 13.8164 117.571 12.5498 117.997 11.2964C118.424 10.0431 118.637 8.85644 118.637 7.73645C118.637 6.42978 118.264 5.34978 117.517 4.49644C116.771 3.61644 115.637 3.17644 114.117 3.17644C113.104 3.17644 112.117 3.38978 111.157 3.81644C110.197 4.21644 109.371 4.68311 108.677 5.21644L107.357 2.93645C108.291 2.13644 109.397 1.50978 110.677 1.05644C111.957 0.603111 113.331 0.376445 114.797 0.376445C115.944 0.376445 116.957 0.549778 117.837 0.896443C118.717 1.21644 119.464 1.68311 120.077 2.29644C120.691 2.90978 121.157 3.64311 121.477 4.49644C121.797 5.32311 121.957 6.22978 121.957 7.21644ZM128.034 0.376445C129.261 1.65644 130.301 3.06978 131.154 4.61645C132.007 6.13644 132.687 7.70978 133.194 9.33644C133.727 10.9364 134.114 12.5631 134.354 14.2164C134.594 15.8431 134.714 17.4031 134.714 18.8964C134.714 20.3631 134.594 21.9098 134.354 23.5364C134.114 25.1631 133.727 26.8031 133.194 28.4564C132.661 30.0831 131.954 31.6831 131.074 33.2564C130.221 34.8298 129.167 36.2964 127.914 37.6564L125.994 36.2564C127.061 34.8964 127.954 33.4831 128.674 32.0164C129.394 30.5498 129.954 29.0698 130.354 27.5764C130.781 26.0831 131.074 24.6031 131.234 23.1364C131.421 21.6698 131.514 20.2564 131.514 18.8964C131.514 17.6164 131.407 16.2298 131.194 14.7364C130.981 13.2431 130.647 11.7364 130.194 10.2164C129.767 8.69644 129.207 7.21644 128.514 5.77644C127.821 4.33644 126.981 3.02978 125.994 1.85644L128.034 0.376445ZM150.509 22.1764C150.509 20.4964 150.949 19.0431 151.829 17.8164C152.709 16.5631 154.082 15.4298 155.949 14.4164C155.282 14.0164 154.656 13.6031 154.069 13.1764C153.509 12.7231 153.002 12.2164 152.549 11.6564C152.122 11.0964 151.776 10.4698 151.509 9.77644C151.269 9.08311 151.149 8.28311 151.149 7.37645C151.149 6.33644 151.322 5.38978 151.669 4.53644C152.042 3.68311 152.562 2.94978 153.229 2.33644C153.922 1.72311 154.736 1.24311 155.669 0.896443C156.629 0.549778 157.709 0.376445 158.909 0.376445C160.029 0.376445 161.042 0.536444 161.949 0.856443C162.856 1.17644 163.616 1.61644 164.229 2.17644C164.869 2.73644 165.362 3.40311 165.709 4.17644C166.056 4.94978 166.229 5.80311 166.229 6.73644C166.229 8.25644 165.882 9.60311 165.189 10.7764C164.496 11.9231 163.349 13.0564 161.749 14.1764C162.442 14.5764 163.096 15.0164 163.709 15.4964C164.349 15.9764 164.896 16.5098 165.349 17.0964C165.829 17.6831 166.202 18.3498 166.469 19.0964C166.736 19.8164 166.869 20.6431 166.869 21.5764C166.869 22.7231 166.682 23.7764 166.309 24.7364C165.936 25.6698 165.389 26.4831 164.669 27.1764C163.949 27.8431 163.069 28.3764 162.029 28.7764C160.989 29.1498 159.802 29.3364 158.469 29.3364C157.189 29.3364 156.056 29.1498 155.069 28.7764C154.082 28.4031 153.242 27.8964 152.549 27.2564C151.882 26.6164 151.376 25.8698 151.029 25.0164C150.682 24.1364 150.509 23.1898 150.509 22.1764ZM163.749 21.7764C163.749 20.9764 163.589 20.2831 163.269 19.6964C162.949 19.0831 162.522 18.5364 161.989 18.0564C161.482 17.5498 160.896 17.0964 160.229 16.6964C159.562 16.2964 158.869 15.9098 158.149 15.5364C156.522 16.4431 155.362 17.4564 154.669 18.5764C153.976 19.6964 153.629 20.7631 153.629 21.7764C153.629 22.4164 153.736 23.0298 153.949 23.6164C154.162 24.2031 154.482 24.7098 154.909 25.1364C155.336 25.5631 155.856 25.9098 156.469 26.1764C157.109 26.4164 157.842 26.5364 158.669 26.5364C159.336 26.5364 159.976 26.4431 160.589 26.2564C161.202 26.0431 161.736 25.7498 162.189 25.3764C162.669 24.9764 163.042 24.4831 163.309 23.8964C163.602 23.2831 163.749 22.5764 163.749 21.7764ZM154.269 7.29644C154.269 8.04311 154.416 8.70978 154.709 9.29644C155.002 9.85644 155.389 10.3631 155.869 10.8164C156.376 11.2698 156.949 11.6964 157.589 12.0964C158.229 12.4698 158.896 12.8298 159.589 13.1764C160.789 12.2431 161.669 11.3231 162.229 10.4164C162.816 9.50978 163.109 8.50978 163.109 7.41644C163.109 6.05644 162.682 5.01644 161.829 4.29644C161.002 3.54978 160.002 3.17644 158.829 3.17644C158.109 3.17644 157.469 3.29644 156.909 3.53644C156.349 3.77644 155.869 4.08311 155.469 4.45644C155.069 4.82978 154.762 5.26978 154.549 5.77644C154.362 6.25644 154.269 6.76311 154.269 7.29644ZM173.906 25.8964H179.506V6.53644L179.906 4.17644L178.306 6.05644L173.906 9.21644L172.386 7.17644L181.186 0.376445H182.626V25.8964H188.106V28.8564H173.906V25.8964ZM209.223 7.21644C209.223 8.62978 208.956 10.0831 208.423 11.5764C207.916 13.0431 207.236 14.5231 206.383 16.0164C205.556 17.5098 204.623 18.9764 203.583 20.4164C202.543 21.8298 201.503 23.1764 200.463 24.4564L198.503 26.1764V26.3364L201.063 25.8964H209.783V28.8564H193.863V27.6964C194.449 27.0831 195.156 26.3231 195.983 25.4164C196.809 24.5098 197.663 23.5098 198.543 22.4164C199.449 21.2964 200.329 20.1231 201.183 18.8964C202.063 17.6431 202.849 16.3764 203.543 15.0964C204.263 13.8164 204.836 12.5498 205.263 11.2964C205.689 10.0431 205.903 8.85644 205.903 7.73645C205.903 6.42978 205.529 5.34978 204.783 4.49644C204.036 3.61644 202.903 3.17644 201.383 3.17644C200.369 3.17644 199.383 3.38978 198.423 3.81644C197.463 4.21644 196.636 4.68311 195.943 5.21644L194.623 2.93645C195.556 2.13644 196.663 1.50978 197.943 1.05644C199.223 0.603111 200.596 0.376445 202.063 0.376445C203.209 0.376445 204.223 0.549778 205.103 0.896443C205.983 1.21644 206.729 1.68311 207.343 2.29644C207.956 2.90978 208.423 3.64311 208.743 4.49644C209.063 5.32311 209.223 6.22978 209.223 7.21644ZM215.54 15.8564H225.22V18.8164H215.54V15.8564ZM231.914 25.8964H237.514V6.53644L237.914 4.17644L236.314 6.05644L231.914 9.21644L230.394 7.17644L239.194 0.376445H240.634V25.8964H246.114V28.8564H231.914V25.8964ZM267.231 7.21644C267.231 8.62978 266.964 10.0831 266.431 11.5764C265.924 13.0431 265.244 14.5231 264.391 16.0164C263.564 17.5098 262.631 18.9764 261.591 20.4164C260.551 21.8298 259.511 23.1764 258.471 24.4564L256.511 26.1764V26.3364L259.071 25.8964H267.791V28.8564H251.871V27.6964C252.457 27.0831 253.164 26.3231 253.991 25.4164C254.817 24.5098 255.671 23.5098 256.551 22.4164C257.457 21.2964 258.337 20.1231 259.191 18.8964C260.071 17.6431 260.857 16.3764 261.551 15.0964C262.271 13.8164 262.844 12.5498 263.271 11.2964C263.697 10.0431 263.911 8.85644 263.911 7.73645C263.911 6.42978 263.537 5.34978 262.791 4.49644C262.044 3.61644 260.911 3.17644 259.391 3.17644C258.377 3.17644 257.391 3.38978 256.431 3.81644C255.471 4.21644 254.644 4.68311 253.951 5.21644L252.631 2.93645C253.564 2.13644 254.671 1.50978 255.951 1.05644C257.231 0.603111 258.604 0.376445 260.071 0.376445C261.217 0.376445 262.231 0.549778 263.111 0.896443C263.991 1.21644 264.737 1.68311 265.351 2.29644C265.964 2.90978 266.431 3.64311 266.751 4.49644C267.071 5.32311 267.231 6.22978 267.231 7.21644ZM273.548 15.8564H283.228V18.8164H273.548V15.8564ZM289.922 25.8964H295.522V6.53644L295.922 4.17644L294.322 6.05644L289.922 9.21644L288.402 7.17644L297.202 0.376445H298.642V25.8964H304.122V28.8564H289.922V25.8964ZM325.238 7.21644C325.238 8.62978 324.972 10.0831 324.438 11.5764C323.932 13.0431 323.252 14.5231 322.398 16.0164C321.572 17.5098 320.638 18.9764 319.598 20.4164C318.558 21.8298 317.518 23.1764 316.478 24.4564L314.518 26.1764V26.3364L317.078 25.8964H325.798V28.8564H309.878V27.6964C310.465 27.0831 311.172 26.3231 311.998 25.4164C312.825 24.5098 313.678 23.5098 314.558 22.4164C315.465 21.2964 316.345 20.1231 317.198 18.8964C318.078 17.6431 318.865 16.3764 319.558 15.0964C320.278 13.8164 320.852 12.5498 321.278 11.2964C321.705 10.0431 321.918 8.85644 321.918 7.73645C321.918 6.42978 321.545 5.34978 320.798 4.49644C320.052 3.61644 318.918 3.17644 317.398 3.17644C316.385 3.17644 315.398 3.38978 314.438 3.81644C313.478 4.21644 312.652 4.68311 311.958 5.21644L310.638 2.93645C311.572 2.13644 312.678 1.50978 313.958 1.05644C315.238 0.603111 316.612 0.376445 318.078 0.376445C319.225 0.376445 320.238 0.549778 321.118 0.896443C321.998 1.21644 322.745 1.68311 323.358 2.29644C323.972 2.90978 324.438 3.64311 324.758 4.49644C325.078 5.32311 325.238 6.22978 325.238 7.21644Z" fill="black"/>
</svg>
